<svg width="32" height="32" viewBox="0 0 32 32" fill="none" xmlns="http://www.w3.org/2000/svg">
<path d="M25.8334 11.3334C26.6475 11.3336 27.4451 11.5631 28.1348 11.9956C28.8245 12.4281 29.3783 13.0462 29.733 13.779C30.0876 14.5117 30.2287 15.3296 30.14 16.1388C30.0513 16.9481 29.7365 17.716 29.2315 18.3545C28.7266 18.9931 28.052 19.4765 27.285 19.7494C26.518 20.0223 25.6896 20.0736 24.8948 19.8974C24.1 19.7213 23.3709 19.3248 22.791 18.7534C22.2112 18.182 21.804 17.4588 21.6161 16.6667H17.6161C17.5152 17.3135 17.2691 17.9289 16.8964 18.467C16.5237 19.0051 16.034 19.4518 15.4641 19.7737C14.8941 20.0956 14.2587 20.2842 13.6054 20.3255C12.9522 20.3668 12.298 20.2596 11.6921 20.0121L9.61876 23.6801C10.432 24.3631 10.9661 25.3209 11.1197 26.3718C11.2732 27.4226 11.0355 28.4932 10.4518 29.3804C9.86799 30.2675 8.97875 30.9094 7.95291 31.1842C6.92707 31.4589 5.83605 31.3474 4.88702 30.8707C3.93799 30.3941 3.19704 29.5855 2.80485 28.5986C2.41266 27.6117 2.39654 26.5151 2.75957 25.5171C3.12259 24.5191 3.83946 23.6891 4.77408 23.1848C5.70869 22.6805 6.79596 22.5369 7.82943 22.7814L10.0588 18.8387C9.37456 18.0515 8.9985 17.0431 9.0001 16.0001C9.0001 14.7907 9.49476 13.6974 10.2934 12.9121L8.1561 9.12806C7.50618 9.33547 6.81649 9.38665 6.14308 9.27744C5.46966 9.16822 4.8315 8.9017 4.28044 8.49951C3.72939 8.09732 3.28097 7.57082 2.97163 6.96277C2.66228 6.35472 2.50073 5.68228 2.5001 5.00006C2.5001 4.28569 2.67672 3.58239 3.01423 2.95278C3.35174 2.32316 3.83967 1.78675 4.4346 1.39129C5.02953 0.995828 5.713 0.753585 6.42418 0.686118C7.13536 0.618651 7.85219 0.728054 8.51087 1.00459C9.16955 1.28112 9.74965 1.71621 10.1995 2.27114C10.6494 2.82606 10.9551 3.48359 11.0895 4.18522C11.2238 4.88685 11.1826 5.61081 10.9695 6.29266C10.7564 6.97452 10.378 7.59311 9.8681 8.09339L12.0054 11.8747C13.0987 11.5226 14.287 11.6188 15.3093 12.1423C16.3316 12.6659 17.1042 13.5738 17.4574 14.6667H21.6161C21.8417 13.7177 22.3806 12.8725 23.1459 12.2677C23.9111 11.6628 24.858 11.3337 25.8334 11.3334ZM13.3334 13.6667C13.0224 13.6592 12.713 13.714 12.4235 13.8278C12.1339 13.9416 11.8701 14.1121 11.6474 14.3294C11.4247 14.5467 11.2478 14.8063 11.1269 15.093C11.0061 15.3796 10.9438 15.6876 10.9437 15.9987C10.9436 16.3098 11.0057 16.6178 11.1264 16.9046C11.2471 17.1913 11.4239 17.451 11.6464 17.6684C11.869 17.8858 12.1328 18.0565 12.4222 18.1705C12.7117 18.2845 13.0211 18.3394 13.3321 18.3321C13.9411 18.3177 14.5203 18.0657 14.946 17.6299C15.3717 17.1942 15.6102 16.6092 15.6103 16C15.6105 15.3909 15.3724 14.8058 14.947 14.3698C14.5215 13.9338 13.9424 13.6815 13.3334 13.6667ZM6.83343 2.66673C6.21459 2.66673 5.6211 2.91256 5.18352 3.35014C4.74593 3.78773 4.5001 4.38122 4.5001 5.00006C4.5001 5.6189 4.74593 6.21239 5.18352 6.64998C5.6211 7.08756 6.21459 7.33339 6.83343 7.33339C7.45227 7.33339 8.04576 7.08756 8.48335 6.64998C8.92093 6.21239 9.16676 5.6189 9.16676 5.00006C9.16676 4.38122 8.92093 3.78773 8.48335 3.35014C8.04576 2.91256 7.45227 2.66673 6.83343 2.66673ZM23.5001 15.6667C23.5001 16.2856 23.7459 16.8791 24.1835 17.3166C24.6211 17.7542 25.2146 18.0001 25.8334 18.0001C26.4523 18.0001 27.0458 17.7542 27.4833 17.3166C27.9209 16.8791 28.1668 16.2856 28.1668 15.6667C28.1668 15.0479 27.9209 14.4544 27.4833 14.0168C27.0458 13.5792 26.4523 13.3334 25.8334 13.3334C25.2146 13.3334 24.6211 13.5792 24.1835 14.0168C23.7459 14.4544 23.5001 15.0479 23.5001 15.6667ZM4.5001 27.0001C4.50028 27.6191 4.74635 28.2127 5.18418 28.6503C5.62202 29.0878 6.21575 29.3336 6.83476 29.3334C7.45378 29.3332 8.04737 29.0871 8.48496 28.6493C8.92254 28.2115 9.16827 27.6177 9.1681 26.9987C9.16801 26.6922 9.10755 26.3887 8.99018 26.1056C8.8728 25.8225 8.70081 25.5652 8.48401 25.3485C8.26722 25.1319 8.00987 24.96 7.72667 24.8428C7.44346 24.7256 7.13994 24.6653 6.83343 24.6654C6.52693 24.6655 6.22344 24.7259 5.9403 24.8433C5.65716 24.9607 5.39991 25.1327 5.18324 25.3495C4.96657 25.5663 4.79472 25.8236 4.67751 26.1068C4.56029 26.39 4.50001 26.6936 4.5001 27.0001Z" fill="#28638D"/>
</svg>
