<svg width="32" height="32" viewBox="0 0 32 32" fill="none" xmlns="http://www.w3.org/2000/svg">
<path d="M2 5.66659C2 4.37859 3.04533 3.33325 4.33333 3.33325H27.6667C28.9547 3.33325 30 4.37859 30 5.66659V22.3333C30 22.9521 29.7542 23.5456 29.3166 23.9832C28.879 24.4208 28.2855 24.6666 27.6667 24.6666H14.7467L9.98267 29.4306C9.71074 29.7015 9.36469 29.8858 8.98816 29.9604C8.61162 30.0349 8.22145 29.9963 7.86682 29.8494C7.51219 29.7026 7.20897 29.454 6.99539 29.1351C6.78182 28.8161 6.66743 28.4411 6.66667 28.0573V24.6666H4.33333C3.71449 24.6666 3.121 24.4208 2.68342 23.9832C2.24583 23.5456 2 22.9521 2 22.3333V5.66659ZM4.33333 5.33325C4.24493 5.33325 4.16014 5.36837 4.09763 5.43088C4.03512 5.4934 4 5.57818 4 5.66659V22.3333C4 22.5173 4.14933 22.6666 4.33333 22.6666H7.66667C7.93188 22.6666 8.18624 22.7719 8.37377 22.9595C8.56131 23.147 8.66667 23.4014 8.66667 23.6666V27.9199L13.6267 22.9599C13.7194 22.867 13.8295 22.7932 13.9508 22.7429C14.0721 22.6926 14.202 22.6666 14.3333 22.6666H27.6667C27.7551 22.6666 27.8399 22.6315 27.9024 22.569C27.9649 22.5064 28 22.4217 28 22.3333V5.66659C28 5.57818 27.9649 5.4934 27.9024 5.43088C27.8399 5.36837 27.7551 5.33325 27.6667 5.33325H4.33333Z" fill="#28638D"/>
</svg>
