<svg width="64" height="64" viewBox="0 0 64 64" fill="none" xmlns="http://www.w3.org/2000/svg">
<path d="M5.3335 16.0002C6.9335 17.3335 8.5335 18.6668 12.0002 18.6668C18.6668 18.6668 18.6668 13.3335 25.3335 13.3335C28.8002 13.3335 30.4002 14.6668 32.0002 16.0002C33.6002 17.3335 35.2002 18.6668 38.6668 18.6668C45.3335 18.6668 45.3335 13.3335 52.0002 13.3335C55.4668 13.3335 57.0668 14.6668 58.6668 16.0002M5.3335 48.0002C6.9335 49.3335 8.5335 50.6668 12.0002 50.6668C18.6668 50.6668 18.6668 45.3335 25.3335 45.3335C28.8002 45.3335 30.4002 46.6668 32.0002 48.0002C33.6002 49.3335 35.2002 50.6668 38.6668 50.6668C45.3335 50.6668 45.3335 45.3335 52.0002 45.3335C55.4668 45.3335 57.0668 46.6668 58.6668 48.0002M5.3335 32.0002C6.9335 33.3335 8.5335 34.6668 12.0002 34.6668C18.6668 34.6668 18.6668 29.3335 25.3335 29.3335C28.8002 29.3335 30.4002 30.6668 32.0002 32.0002C33.6002 33.3335 35.2002 34.6668 38.6668 34.6668C45.3335 34.6668 45.3335 29.3335 52.0002 29.3335C55.4668 29.3335 57.0668 30.6668 58.6668 32.0002" stroke="#90C2E7" stroke-width="3" stroke-linecap="round" stroke-linejoin="round"/>
</svg>
