<svg width="64" height="64" viewBox="0 0 64 64" fill="none" xmlns="http://www.w3.org/2000/svg">
<path d="M58 32C58 46.3596 46.3596 58 32 58M58 32C58 17.6406 46.3596 6 32 6M58 32C58 38.6274 46.3596 44 32 44C17.6406 44 6 38.6274 6 32M58 32C58 25.3726 46.3596 20 32 20C17.6406 20 6 25.3726 6 32M32 58C17.6406 58 6 46.3596 6 32M32 58C38.6274 58 44 46.3596 44 32C44 17.6406 38.6274 6 32 6M32 58C25.3726 58 20 46.3596 20 32C20 17.6406 25.3726 6 32 6M32 6C17.6406 6 6 17.6406 6 32" stroke="#90C2E7" stroke-width="3"/>
</svg>
