<svg width="87" height="58" viewBox="0 0 87 58" fill="none" xmlns="http://www.w3.org/2000/svg">
<path d="M69.1642 46.588L51.8707 46.588L51.8707 41.785L69.1642 41.785C76.2889 41.785 82.1182 36.0084 82.1182 28.8687C82.1182 21.7291 76.2889 15.9524 69.1642 15.9524L51.8707 15.9524L51.8707 11.1494L69.2938 11.1494C79.074 11.1494 86.9111 19.0679 86.9111 28.8687C86.9111 38.6695 78.9445 46.588 69.1642 46.588Z" fill="#093C63"/>
<path d="M17.7479 46.7081L35.0414 46.7081L35.0414 41.9051L17.7479 41.9051C10.6232 41.9051 4.79393 36.1285 4.79393 28.9888C4.79393 21.8492 10.6232 16.0726 17.7479 16.0726L35.0414 16.0726L35.0414 11.2695L17.6183 11.2695C7.83811 11.2695 0.000976909 19.188 0.000977337 28.9888C0.000977765 38.7896 7.96765 46.7081 17.7479 46.7081Z" fill="#093C63"/>
<path d="M39 56.6507C38.5902 55.9409 38.8217 55.2551 39.4005 54.7632C43.0552 51.3124 42.6533 41.9223 41.9687 34.3517L41.1893 25.2585C40.4762 17.2312 39.4748 6.53095 45.621 1.01073C45.7386 0.942809 45.8221 0.815733 45.9986 0.71385C46.7045 0.306313 47.5412 0.533029 47.9511 1.24286C48.3267 1.89353 48.154 2.54533 47.4576 3.10513C42.3855 7.76866 43.3053 17.6484 43.9463 25.0075L44.7257 34.1008C45.3421 41.553 45.9355 50.5959 42.518 55.4083C42.1252 55.9505 41.5066 56.7809 40.8595 57.1545C40.2125 57.5281 39.3757 57.3014 39 56.6507Z" fill="#093C63"/>
</svg>
