<svg width="660" height="150" viewBox="0 0 660 150" fill="none" xmlns="http://www.w3.org/2000/svg">
<path d="M317.2 127.527C317.2 126.027 318.2 125.152 319.575 124.902C328.575 122.777 336.575 107.527 342.45 94.9018L349.575 79.7768C355.825 66.4018 364.075 48.5268 378.95 45.4018C379.2 45.4018 379.45 45.2768 379.825 45.2768C381.325 45.2768 382.45 46.4018 382.45 47.9018C382.45 49.2768 381.575 50.1518 379.95 50.4018C367.575 53.1518 359.95 69.6518 354.2 81.9018L347.075 97.0268C341.2 109.402 333.825 124.277 323.95 128.777C322.825 129.277 321.075 130.027 319.7 130.027C318.325 130.027 317.2 128.902 317.2 127.527Z" fill="#F3F3F3"/>
<path d="M317.109 127.763C317.109 126.263 318.109 125.388 319.484 125.138C328.484 123.013 336.484 107.763 342.359 95.1378L349.484 80.0128C355.734 66.6378 363.984 48.7628 378.859 45.6378C379.109 45.6378 379.359 45.5128 379.734 45.5128C381.234 45.5128 382.359 46.6378 382.359 48.1378C382.359 49.5128 381.484 50.3878 379.859 50.6378C367.484 53.3878 359.859 69.8878 354.109 82.1378L346.984 97.2628C341.109 109.638 333.734 124.513 323.859 129.013C322.734 129.513 320.984 130.263 319.609 130.263C318.234 130.263 317.109 129.138 317.109 127.763Z" fill="#F3F3F3"/>
<path d="M8.53516 126.375V48.625C8.53516 47.125 9.66016 46 10.9102 46C12.0352 46 12.5352 46.375 13.0352 46.875L83.0352 119.625V48.625C83.0352 47.125 84.1602 46 85.6602 46C87.1602 46 88.2852 47.125 88.2852 48.625V126.5C88.2852 127.875 87.4102 129 85.9102 129C84.7852 129 84.2852 128.625 83.6602 128L13.7852 55.125V126.375C13.7852 127.875 12.6602 129 11.1602 129C9.66016 129 8.53516 127.875 8.53516 126.375ZM137.299 124.875C147.049 124.875 154.049 120.375 158.674 114C159.049 113.375 159.799 113 160.674 113C162.049 113 163.174 114.125 163.174 115.5C163.174 116.25 162.799 116.875 162.424 117.375C156.424 125.25 147.924 129.875 137.299 129.875C117.924 129.875 105.924 115.75 105.924 98.375C105.924 81.125 119.424 67 136.049 67C152.674 67 166.174 81.125 166.174 98.375C166.174 100.125 166.174 102.125 163.049 102.125H111.549C113.174 114.875 123.049 124.875 137.299 124.875ZM136.049 72C122.924 72 111.924 83.375 111.299 97.125H160.924C160.299 83.375 149.424 72 136.049 72ZM211.762 124.875C221.512 124.875 228.512 120.375 233.137 114C233.512 113.375 234.262 113 235.137 113C236.512 113 237.637 114.125 237.637 115.5C237.637 116.25 237.262 116.875 236.887 117.375C230.887 125.25 222.387 129.875 211.762 129.875C192.387 129.875 180.387 115.75 180.387 98.375C180.387 81.125 193.887 67 210.512 67C227.137 67 240.637 81.125 240.637 98.375C240.637 100.125 240.637 102.125 237.512 102.125H186.012C187.637 114.875 197.512 124.875 211.762 124.875ZM210.512 72C197.387 72 186.387 83.375 185.762 97.125H235.387C234.762 83.375 223.887 72 210.512 72ZM256.475 126.375V70.125C256.475 68.625 257.6 67.5 259.1 67.5C260.6 67.5 261.725 68.625 261.725 70.125V76.375C266.35 70.375 273.6 67 282.225 67C299.35 67 305.225 78.125 306.85 86.375C306.85 86.375 306.975 87 306.975 87.75C306.975 89.25 305.725 90.25 304.225 90.25C302.725 90.25 301.725 89.25 301.6 87.875C300.35 77.625 293.225 72.25 281.6 72.25C272.85 72.25 265.1 77.125 261.725 84.625V126.375C261.725 127.875 260.6 129 259.1 129C257.6 129 256.475 127.875 256.475 126.375ZM317.125 127.375C317.125 125.875 318.125 125 319.5 124.75C328.5 122.625 336.5 107.375 342.375 94.75L349.5 79.625C355.75 66.25 364 48.375 378.875 45.25C379.125 45.25 379.375 45.125 379.75 45.125C381.25 45.125 382.375 46.25 382.375 47.75C382.375 49.125 381.5 50 379.875 50.25C367.5 53 359.875 69.5 354.125 81.75L347 96.875C341.125 109.25 333.75 124.125 323.875 128.625C322.75 129.125 321 129.875 319.625 129.875C318.25 129.875 317.125 128.75 317.125 127.375ZM409.76 124.875C419.51 124.875 426.51 120.375 431.135 114C431.51 113.375 432.26 113 433.135 113C434.51 113 435.635 114.125 435.635 115.5C435.635 116.25 435.26 116.875 434.885 117.375C428.885 125.25 420.385 129.875 409.76 129.875C390.385 129.875 378.385 115.75 378.385 98.375C378.385 81.125 391.885 67 408.51 67C425.135 67 438.635 81.125 438.635 98.375C438.635 100.125 438.635 102.125 435.51 102.125H384.01C385.635 114.875 395.51 124.875 409.76 124.875ZM408.51 72C395.385 72 384.385 83.375 383.76 97.125H433.385C432.76 83.375 421.885 72 408.51 72ZM454.473 126.375V70.125C454.473 68.625 455.598 67.5 457.098 67.5C458.598 67.5 459.723 68.625 459.723 70.125V77.125C465.098 70.625 473.598 67 483.973 67C500.973 67 510.348 77.75 510.348 94.625V126.375C510.348 127.875 509.223 129 507.723 129C506.223 129 505.098 127.875 505.098 126.375V95.125C505.098 79.5 497.848 72 483.348 72C472.723 72 463.598 77.125 459.723 85V126.375C459.723 127.875 458.598 129 457.098 129C455.598 129 454.473 127.875 454.473 126.375ZM526.712 121.125C526.712 119.75 527.837 118.625 529.212 118.625C529.962 118.625 530.212 118.875 530.712 119.125C537.337 123.25 545.212 124.875 552.837 124.875C559.962 124.875 573.212 122.625 573.212 113C573.212 104.75 562.837 102.875 552.587 100.875C540.337 98.625 528.087 96.125 528.087 83.875C528.087 71.125 541.962 67 552.837 67C560.462 67 567.712 68.75 573.337 73.125C573.837 73.5 574.212 74.25 574.212 75C574.212 76.375 573.087 77.5 571.712 77.5C570.962 77.5 570.212 77 569.712 76.625C565.212 73.25 559.212 72 552.837 72C544.337 72 533.462 74.875 533.462 83.875C533.462 92.125 543.462 93.75 553.587 95.625C565.962 97.875 578.587 100.625 578.587 113C578.587 126.625 561.837 129.875 552.837 129.875C544.212 129.875 535.087 127.625 527.837 123.25C527.087 122.75 526.712 121.875 526.712 121.125ZM623.627 124.875C633.377 124.875 640.377 120.375 645.002 114C645.377 113.375 646.127 113 647.002 113C648.377 113 649.502 114.125 649.502 115.5C649.502 116.25 649.127 116.875 648.752 117.375C642.752 125.25 634.252 129.875 623.627 129.875C604.252 129.875 592.252 115.75 592.252 98.375C592.252 81.125 605.752 67 622.377 67C639.002 67 652.502 81.125 652.502 98.375C652.502 100.125 652.502 102.125 649.377 102.125H597.877C599.502 114.875 609.377 124.875 623.627 124.875ZM622.377 72C609.252 72 598.252 83.375 597.627 97.125H647.252C646.627 83.375 635.752 72 622.377 72Z" fill="#F3F3F3"/>
</svg>
