<svg width="387" height="52" viewBox="0 0 387 52" fill="none" xmlns="http://www.w3.org/2000/svg">
<path d="M0.121094 49.025V2.375C0.121094 1.475 0.796094 0.799999 1.54609 0.799999C2.22109 0.799999 2.52109 1.025 2.82109 1.325L44.8211 44.975V2.375C44.8211 1.475 45.4961 0.799999 46.3961 0.799999C47.2961 0.799999 47.9711 1.475 47.9711 2.375V49.1C47.9711 49.925 47.4461 50.6 46.5461 50.6C45.8711 50.6 45.5711 50.375 45.1961 50L3.27109 6.275V49.025C3.27109 49.925 2.59609 50.6 1.69609 50.6C0.796094 50.6 0.121094 49.925 0.121094 49.025ZM77.3793 48.125C83.2293 48.125 87.4293 45.425 90.2043 41.6C90.4293 41.225 90.8793 41 91.4043 41C92.2293 41 92.9043 41.675 92.9043 42.5C92.9043 42.95 92.6793 43.325 92.4543 43.625C88.8543 48.35 83.7543 51.125 77.3793 51.125C65.7543 51.125 58.5543 42.65 58.5543 32.225C58.5543 21.875 66.6543 13.4 76.6293 13.4C86.6043 13.4 94.7043 21.875 94.7043 32.225C94.7043 33.275 94.7043 34.475 92.8293 34.475H61.9293C62.9043 42.125 68.8293 48.125 77.3793 48.125ZM76.6293 16.4C68.7543 16.4 62.1543 23.225 61.7793 31.475H91.5543C91.1793 23.225 84.6543 16.4 76.6293 16.4ZM122.057 48.125C127.907 48.125 132.107 45.425 134.882 41.6C135.107 41.225 135.557 41 136.082 41C136.907 41 137.582 41.675 137.582 42.5C137.582 42.95 137.357 43.325 137.132 43.625C133.532 48.35 128.432 51.125 122.057 51.125C110.432 51.125 103.232 42.65 103.232 32.225C103.232 21.875 111.332 13.4 121.307 13.4C131.282 13.4 139.382 21.875 139.382 32.225C139.382 33.275 139.382 34.475 137.507 34.475H106.607C107.582 42.125 113.507 48.125 122.057 48.125ZM121.307 16.4C113.432 16.4 106.832 23.225 106.457 31.475H136.232C135.857 23.225 129.332 16.4 121.307 16.4ZM148.885 49.025V15.275C148.885 14.375 149.56 13.7 150.46 13.7C151.36 13.7 152.035 14.375 152.035 15.275V19.025C154.81 15.425 159.16 13.4 164.335 13.4C174.61 13.4 178.135 20.075 179.11 25.025C179.11 25.025 179.185 25.4 179.185 25.85C179.185 26.75 178.435 27.35 177.535 27.35C176.635 27.35 176.035 26.75 175.96 25.925C175.21 19.775 170.935 16.55 163.96 16.55C158.71 16.55 154.06 19.475 152.035 23.975V49.025C152.035 49.925 151.36 50.6 150.46 50.6C149.56 50.6 148.885 49.925 148.885 49.025ZM185.275 49.625C185.275 48.725 185.875 48.2 186.7 48.05C192.1 46.775 196.9 37.625 200.425 30.05L204.7 20.975C208.45 12.95 213.4 2.225 222.325 0.349995C222.475 0.349995 222.625 0.274996 222.85 0.274996C223.75 0.274996 224.425 0.949997 224.425 1.85C224.425 2.675 223.9 3.2 222.925 3.35C215.5 5 210.925 14.9 207.475 22.25L203.2 31.325C199.675 38.75 195.25 47.675 189.325 50.375C188.65 50.675 187.6 51.125 186.775 51.125C185.95 51.125 185.275 50.45 185.275 49.625ZM240.856 48.125C246.706 48.125 250.906 45.425 253.681 41.6C253.906 41.225 254.356 41 254.881 41C255.706 41 256.381 41.675 256.381 42.5C256.381 42.95 256.156 43.325 255.931 43.625C252.331 48.35 247.231 51.125 240.856 51.125C229.231 51.125 222.031 42.65 222.031 32.225C222.031 21.875 230.131 13.4 240.106 13.4C250.081 13.4 258.181 21.875 258.181 32.225C258.181 33.275 258.181 34.475 256.306 34.475H225.406C226.381 42.125 232.306 48.125 240.856 48.125ZM240.106 16.4C232.231 16.4 225.631 23.225 225.256 31.475H255.031C254.656 23.225 248.131 16.4 240.106 16.4ZM267.684 49.025V15.275C267.684 14.375 268.359 13.7 269.259 13.7C270.159 13.7 270.834 14.375 270.834 15.275V19.475C274.059 15.575 279.159 13.4 285.384 13.4C295.584 13.4 301.209 19.85 301.209 29.975V49.025C301.209 49.925 300.534 50.6 299.634 50.6C298.734 50.6 298.059 49.925 298.059 49.025V30.275C298.059 20.9 293.709 16.4 285.009 16.4C278.634 16.4 273.159 19.475 270.834 24.2V49.025C270.834 49.925 270.159 50.6 269.259 50.6C268.359 50.6 267.684 49.925 267.684 49.025ZM311.027 45.875C311.027 45.05 311.702 44.375 312.527 44.375C312.977 44.375 313.127 44.525 313.427 44.675C317.402 47.15 322.127 48.125 326.702 48.125C330.977 48.125 338.927 46.775 338.927 41C338.927 36.05 332.702 34.925 326.552 33.725C319.202 32.375 311.852 30.875 311.852 23.525C311.852 15.875 320.177 13.4 326.702 13.4C331.277 13.4 335.627 14.45 339.002 17.075C339.302 17.3 339.527 17.75 339.527 18.2C339.527 19.025 338.852 19.7 338.027 19.7C337.577 19.7 337.127 19.4 336.827 19.175C334.127 17.15 330.527 16.4 326.702 16.4C321.602 16.4 315.077 18.125 315.077 23.525C315.077 28.475 321.077 29.45 327.152 30.575C334.577 31.925 342.152 33.575 342.152 41C342.152 49.175 332.102 51.125 326.702 51.125C321.527 51.125 316.052 49.775 311.702 47.15C311.252 46.85 311.027 46.325 311.027 45.875ZM369.176 48.125C375.026 48.125 379.226 45.425 382.001 41.6C382.226 41.225 382.676 41 383.201 41C384.026 41 384.701 41.675 384.701 42.5C384.701 42.95 384.476 43.325 384.251 43.625C380.651 48.35 375.551 51.125 369.176 51.125C357.551 51.125 350.351 42.65 350.351 32.225C350.351 21.875 358.451 13.4 368.426 13.4C378.401 13.4 386.501 21.875 386.501 32.225C386.501 33.275 386.501 34.475 384.626 34.475H353.726C354.701 42.125 360.626 48.125 369.176 48.125ZM368.426 16.4C360.551 16.4 353.951 23.225 353.576 31.475H383.351C382.976 23.225 376.451 16.4 368.426 16.4Z" fill="#093C63"/>
</svg>
